<svg id="appLogo" xmlns="http://www.w3.org/2000/svg" width="36.798" height="41.8" viewBox="0 0 36.798 41.8">
  <path id="Path_66" data-name="Path 66" d="M349.605,83.149a2.2,2.2,0,0,1-.034.327A2.25,2.25,0,1,0,348.531,85l12.792,7.385a2.221,2.221,0,0,1,1.073-1.85Zm-2.226,1.385a1.435,1.435,0,1,1,1.435-1.435A1.437,1.437,0,0,1,347.379,84.533Z" transform="translate(-328.98 -80.868)" fill="#fff"/>
  <path id="Path_67" data-name="Path 67" d="M304.762,139.4a2.214,2.214,0,0,1-.036.356,2.164,2.164,0,0,0-1.122-2.325V125.047l-2.138,1.235v11.153h0a2.222,2.222,0,1,0,2.245,3.832h0l4.476,2.583v-2.469Zm-2.228,1.411a1.436,1.436,0,1,1,1.435-1.435A1.437,1.437,0,0,1,302.534,140.815Z" transform="translate(-300.304 -109.118)" fill="#fff"/>
  <path id="Path_68" data-name="Path 68" d="M370.6,151.23h0v-4.675l-2.138,1.235v3.355a2.162,2.162,0,0,0-1.2,2.356,2.24,2.24,0,0,1-.03-.3l-12.722,7.345a2.209,2.209,0,0,1,1.081,1.845l12.729-7.349h0a2.206,2.206,0,0,0,1.135.321,2.224,2.224,0,0,0,1.147-4.133Zm-1.147,3.338a1.436,1.436,0,1,1,1.435-1.435A1.437,1.437,0,0,1,369.455,154.568Z" transform="translate(-334.966 -122.871)" fill="#fff"/>
  <path id="Path_69" data-name="Path 69" d="M332.141,175.113a2.21,2.21,0,0,0-1.152.33l-9.671-5.583v2.469l8.6,4.963a2.169,2.169,0,0,1,.034-.327,2.227,2.227,0,1,0,2.192-1.852Zm0,3.666a1.436,1.436,0,1,1,1.435-1.436A1.437,1.437,0,0,1,332.141,178.778Z" transform="translate(-313.741 -137.773)" fill="#fff"/>
  <path id="Path_70" data-name="Path 70" d="M317.558,89.039a2.21,2.21,0,0,1-1.081-1.845l-12.791,7.384h0a2.2,2.2,0,0,0-1.152-.33,2.222,2.222,0,0,0-1.069,4.175h0v4.007l2.138-1.235V98.423a2.223,2.223,0,0,0,1.161-1.945c0-.017,0-.033-.005-.05Zm-15.024,8.874a1.435,1.435,0,1,1,1.435-1.435A1.437,1.437,0,0,1,302.534,97.913Z" transform="translate(-300.304 -84.913)" fill="#fff"/>
  <path id="Path_71" data-name="Path 71" d="M394.452,108.988a2.23,2.23,0,1,0-3.3,1.945v11.761l2.138-1.235V110.933h0A2.223,2.223,0,0,0,394.452,108.988Zm-2.23,1.435a1.435,1.435,0,1,1,1.435-1.435A1.437,1.437,0,0,1,392.222,110.423Z" transform="translate(-357.654 -97.423)" fill="#fff"/>
  <path id="Path_72" data-name="Path 72" d="M339.193,118.145h-8.7l2.4-4.15,6.481,3.742c.035-.063.064-.128.1-.187l-6.479-3.74,2.4-4.15,4.363,7.557c.052-.05.111-.093.167-.138l-4.407-7.633,4.422-7.659c-.055-.048-.111-.1-.161-.149l-4.384,7.593-2.4-4.15,6.525-3.767c-.039-.059-.069-.124-.1-.188l-6.529,3.77-2.4-4.15h8.772a2.144,2.144,0,0,1-.061-.214h-8.835l-4.422-7.658c-.069.024-.138.048-.209.065l4.384,7.593h-4.792V93c-.036,0-.07.011-.107.011s-.071-.009-.107-.011v7.537h-4.792l4.384-7.593c-.072-.017-.141-.041-.209-.065l-4.422,7.658H311.24c-.014.074-.04.143-.061.214h8.773l-2.4,4.15-6.53-3.77c-.033.063-.064.128-.1.188l6.525,3.767-2.4,4.15-4.385-7.593c-.05.053-.106.1-.161.149l4.422,7.659-4.432,7.677c.056.048.112.093.163.146l4.393-7.609,2.4,4.15-6.536,3.774c.039.059.069.125.1.188l6.541-3.776,2.4,4.15h-8.781a2.156,2.156,0,0,1,.066.213h8.838l4.422,7.658a2.168,2.168,0,0,1,.209-.065l-4.384-7.593h4.792V125.9c.036,0,.07-.011.107-.011s.071.009.107.011v-7.538h4.792l-4.384,7.593a2.166,2.166,0,0,1,.209.065l4.422-7.658h8.76A2.147,2.147,0,0,1,339.193,118.145Zm-24.017-8.7,2.458-4.257,7.373,4.256-7.373,4.257Zm9.938,8.7H320.2l-2.458-4.257,7.373-4.257Zm0-8.884L317.741,105l2.458-4.257h4.916Zm10.152.185-2.458,4.257-7.373-4.257,7.373-4.257Zm-9.938-8.7h4.916L332.7,105l-7.373,4.257Zm4.916,17.4h-4.916v-8.514l7.373,4.257Z" transform="translate(-306.822 -88.546)" fill="#fff"/>
</svg>
