<svg xmlns="http://www.w3.org/2000/svg" width="40.495" height="46" viewBox="0 0 40.495 46">
  <g id="AppLogoDark" transform="translate(-300.304 -80.868)">
    <path id="Path_66" data-name="Path 66" d="M350.053,83.378a2.424,2.424,0,0,1-.037.36,2.476,2.476,0,1,0-1.145,1.675l14.077,8.127a2.444,2.444,0,0,1,1.181-2.036ZM347.6,84.9a1.58,1.58,0,1,1,1.58-1.58A1.581,1.581,0,0,1,347.6,84.9Z" transform="translate(-27.051 0)" fill="#504e4e"/>
    <path id="Path_67" data-name="Path 67" d="M305.21,140.847a2.436,2.436,0,0,1-.04.391,2.381,2.381,0,0,0-1.235-2.559V125.047l-2.353,1.359v12.273h0a2.445,2.445,0,1,0,2.47,4.217h0l4.926,2.843v-2.717Zm-2.451,1.552a1.58,1.58,0,1,1,1.58-1.58A1.581,1.581,0,0,1,302.759,142.4Z" transform="translate(0 -26.649)" fill="#504e4e"/>
    <path id="Path_68" data-name="Path 68" d="M372.219,151.7h0v-5.144l-2.353,1.359v3.692a2.38,2.38,0,0,0-1.323,2.593,2.464,2.464,0,0,1-.033-.331l-14,8.083a2.431,2.431,0,0,1,1.19,2.03l14.008-8.087h0a2.428,2.428,0,0,0,1.249.354,2.447,2.447,0,0,0,1.262-4.548Zm-1.262,3.673a1.58,1.58,0,1,1,1.58-1.58A1.581,1.581,0,0,1,370.957,155.373Z" transform="translate(-32.698 -39.623)" fill="#504e4e"/>
    <path id="Path_69" data-name="Path 69" d="M333.228,175.64a2.432,2.432,0,0,0-1.268.363l-10.642-6.144v2.717l9.46,5.462a2.384,2.384,0,0,1,.038-.36,2.451,2.451,0,1,0,2.412-2.038Zm0,4.034a1.58,1.58,0,1,1,1.58-1.58A1.581,1.581,0,0,1,333.228,179.675Z" transform="translate(-12.676 -53.681)" fill="#504e4e"/>
    <path id="Path_70" data-name="Path 70" d="M319.292,89.224a2.432,2.432,0,0,1-1.19-2.03L304.026,95.32h0a2.427,2.427,0,0,0-1.268-.363,2.446,2.446,0,0,0-1.177,4.594h0v4.409l2.353-1.359V99.551a2.446,2.446,0,0,0,1.278-2.14c0-.019-.005-.036-.006-.055ZM302.759,98.99a1.58,1.58,0,1,1,1.58-1.58A1.581,1.581,0,0,1,302.759,98.99Z" transform="translate(0 -3.816)" fill="#504e4e"/>
    <path id="Path_71" data-name="Path 71" d="M394.9,109.212a2.454,2.454,0,1,0-3.631,2.14V124.3l2.353-1.359V111.352h0A2.446,2.446,0,0,0,394.9,109.212Zm-2.454,1.58a1.58,1.58,0,1,1,1.58-1.58A1.581,1.581,0,0,1,392.446,110.792Z" transform="translate(-54.101 -15.617)" fill="#504e4e"/>
    <path id="Path_72" data-name="Path 72" d="M342.077,120.684H332.5l2.637-4.567,7.132,4.118c.038-.069.071-.141.115-.206l-7.129-4.116,2.637-4.567,4.8,8.316c.057-.056.122-.1.184-.152l-4.85-8.4,4.867-8.428c-.061-.053-.122-.1-.177-.163l-4.824,8.356-2.637-4.567,7.18-4.146c-.042-.065-.076-.137-.112-.207l-7.185,4.148-2.637-4.567h9.654a2.357,2.357,0,0,1-.067-.235h-9.723L327.5,92.875c-.076.026-.152.053-.23.072l4.824,8.356h-5.274V93.008c-.04,0-.077.012-.117.012s-.078-.01-.117-.012V101.3h-5.274l4.824-8.356c-.079-.019-.155-.046-.23-.072l-4.866,8.427h-9.723c-.016.081-.044.157-.067.235H320.9l-2.637,4.567-7.186-4.149c-.036.07-.07.141-.113.207l7.181,4.146-2.637,4.567-4.825-8.356c-.055.059-.116.11-.177.163l4.866,8.429-4.878,8.448c.061.052.123.1.179.161l4.835-8.373,2.637,4.567-7.193,4.153c.043.065.076.137.113.207l7.2-4.156,2.637,4.567h-9.664a2.37,2.37,0,0,1,.073.235h9.727l4.866,8.428a2.392,2.392,0,0,1,.23-.072l-4.824-8.356h5.274v8.3c.04,0,.077-.012.117-.012s.078.01.117.012v-8.3h5.274l-4.824,8.356a2.387,2.387,0,0,1,.23.072l4.866-8.428H342A2.354,2.354,0,0,1,342.077,120.684Zm-26.43-9.573,2.7-4.684,8.113,4.684-8.114,4.684Zm10.937,9.573h-5.409l-2.7-4.685,8.114-4.685Zm0-9.777-8.114-4.684,2.7-4.685h5.409Zm11.172.2-2.7,4.685-8.114-4.685,8.114-4.684Zm-10.937-9.573h5.41l2.7,4.684-8.114,4.684Zm5.41,19.146h-5.41v-9.369L334.932,116Z" transform="translate(-6.149 -7.243)" fill="#504e4e"/>
  </g>
</svg>
